<svg width="62" height="62" viewBox="0 0 62 62" fill="none" xmlns="http://www.w3.org/2000/svg">
<circle cx="31" cy="31" r="31" fill="#F0EFF3"/>
<path d="M42.1921 36.1745L41.8165 36.5413L41.9051 37.0587L44.1819 50.3554C44.2173 50.5632 44.132 50.7723 43.9628 50.8956L43.9614 50.8966C43.8688 50.9643 43.7564 51 43.6415 51C43.5547 51 43.4678 50.9792 43.3888 50.9375L43.3877 50.9369L31.466 44.6587L31 44.4134L30.5341 44.6587L18.6139 50.9353L18.6111 50.9368C18.4294 51.0332 18.2078 51.0177 18.0405 50.8953L18.0388 50.894C17.8696 50.7708 17.7843 50.5618 17.8196 50.354C17.8196 50.354 17.8196 50.3539 17.8197 50.3538L20.0964 37.0572L20.1851 36.5396L19.8093 36.1728L10.1673 26.7607C10.1672 26.7605 10.167 26.7604 10.1668 26.7602C10.0156 26.6117 9.9629 26.3911 10.0266 26.1959C10.0921 25.9952 10.2657 25.8495 10.4707 25.8194C10.4709 25.8193 10.471 25.8193 10.4712 25.8193L23.7962 23.8812L24.3168 23.8055L24.5493 23.3335L30.5086 11.2362L30.5086 11.2361C30.5618 11.1281 30.7192 11 31 11C31.2808 11 31.4382 11.1281 31.4914 11.2361L31.4914 11.2362L37.4507 23.3335L37.6832 23.8055L38.2038 23.8812L51.5288 25.8193C51.529 25.8193 51.5291 25.8193 51.5293 25.8194C51.7355 25.8497 51.9079 25.9946 51.9732 26.1952C52.037 26.3912 51.9853 26.6099 51.8323 26.761C51.832 26.7614 51.8317 26.7617 51.8313 26.762L42.1921 36.1745Z" stroke="#FF6F4F" stroke-width="2"/>
</svg>
