<svg width="47" height="47" viewBox="0 0 47 47" fill="none" xmlns="http://www.w3.org/2000/svg">
<path d="M23.5 0C36.4583 0 47 10.5417 47 23.5C47 36.4583 36.4583 47 23.5 47C10.5417 47 0 36.4583 0 23.5C0 10.5417 10.5417 0 23.5 0ZM16.2404 24.8846L26.0321 34.6762C26.414 35.0581 26.9153 35.25 27.4167 35.25C27.918 35.25 28.4194 35.0581 28.8013 34.6762C29.5669 33.9105 29.5669 32.6728 28.8013 31.9071L20.3941 23.5L28.8012 15.0929C29.5669 14.3272 29.5669 13.0895 28.8012 12.3238C28.0355 11.5581 26.7978 11.5581 26.0321 12.3238L16.2404 22.1155C15.4747 22.8812 15.4747 24.1188 16.2404 24.8846Z" fill="#737373"/>
</svg>
