<svg width="24" height="23" viewBox="0 0 24 23" fill="none" xmlns="http://www.w3.org/2000/svg">
<path d="M16.0019 0.657227L14.6016 4.37814C15.8942 8.46618 15.8942 14.5338 14.6016 18.6221L16.0019 22.3426C20.662 20.7634 24.0013 16.5064 24.0013 11.4996C24.0013 6.49365 20.662 2.23645 16.0019 0.657227Z" fill="#F27021"/>
<path d="M16.0007 4.37801V0.657103C14.7493 0.23297 13.4033 0 12 0C13.8504 0 11.2847 6.00987 16.0007 4.37801Z" fill="#E4E4E4"/>
<path d="M11.9979 22.9996C13.4011 22.9996 14.7472 22.7667 15.9986 22.3425V18.622C11.33 18.1754 11.9979 22.9996 11.9979 22.9996Z" fill="#E4E4E4"/>
<path d="M0 11.5C0 16.5236 3.36199 20.7917 8.04618 22.3582V0.642578C3.36199 2.20903 0 6.47721 0 11.5Z" fill="#2DB24A"/>
<path d="M16 4.37793V18.6219C17.2928 14.5336 17.2928 8.46597 16 4.37793Z" fill="#F69338"/>
<path d="M16.0013 18.6221V4.37801C15.1843 1.79345 13.851 0 12.0006 0C10.6148 0 9.28527 0.228066 8.04688 0.642245V22.358C9.28527 22.7721 10.6148 22.9999 12.0006 22.9999C13.851 22.9998 15.1843 21.2064 16.0013 18.6221Z" fill="#F3F4F5"/>
</svg>
