<svg width="46" height="47" viewBox="0 0 46 47" fill="none" xmlns="http://www.w3.org/2000/svg">
<path d="M23 0C10.3174 0 0 10.5417 0 23.5C0 36.4583 10.3174 47 23 47C35.6826 47 46 36.4583 46 23.5C46 10.5417 35.6826 0 23 0ZM30.1051 24.8846L20.5217 34.6762C20.148 35.0581 19.6574 35.25 19.1666 35.25C18.676 35.25 18.1853 35.0581 17.8115 34.6762C17.0621 33.9105 17.0621 32.6728 17.8115 31.9071L26.0399 23.5L17.8116 15.0929C17.0622 14.3272 17.0622 13.0895 17.8116 12.3238C18.561 11.5581 19.7724 11.5581 20.5217 12.3238L30.1051 22.1155C30.8545 22.8812 30.8545 24.1188 30.1051 24.8846Z" fill="#CCCCCC"/>
</svg>
