<svg id="Layer_1" data-name="Layer 1" xmlns="http://www.w3.org/2000/svg" xmlns:xlink="http://www.w3.org/1999/xlink" viewBox="0 0 198.71 29.61"><defs><style>.cls-1{fill:#0e1c28;}.cls-2{fill:url(#linear-gradient);}.cls-3{fill:url(#linear-gradient-2);}.cls-4{fill:url(#linear-gradient-3);}.cls-5{fill:url(#linear-gradient-4);}.cls-6{fill:url(#linear-gradient-5);}.cls-7{fill:url(#linear-gradient-6);}.cls-8{fill:url(#linear-gradient-7);}.cls-9{fill:url(#linear-gradient-8);}.cls-10{fill:url(#linear-gradient-9);}.cls-11{fill:url(#linear-gradient-10);}</style><linearGradient id="linear-gradient" x1="198.71" y1="17.41" x2="119.69" y2="17.41" gradientTransform="matrix(1, 0, 0, -1, 0, 32)" gradientUnits="userSpaceOnUse"><stop offset="0" stop-color="#ec2c20"/><stop offset="1" stop-color="#e0ff4f"/></linearGradient><linearGradient id="linear-gradient-2" x1="198.71" y1="17.2" x2="119.69" y2="17.2" xlink:href="#linear-gradient"/><linearGradient id="linear-gradient-3" x1="198.71" y1="17.22" x2="119.69" y2="17.22" xlink:href="#linear-gradient"/><linearGradient id="linear-gradient-4" x1="198.71" y1="25.38" x2="119.69" y2="25.38" xlink:href="#linear-gradient"/><linearGradient id="linear-gradient-5" x1="198.71" y1="24.55" x2="119.69" y2="24.55" xlink:href="#linear-gradient"/><linearGradient id="linear-gradient-6" x1="198.71" y1="24.05" x2="119.69" y2="24.05" xlink:href="#linear-gradient"/><linearGradient id="linear-gradient-7" x1="198.71" y1="24.02" x2="119.69" y2="24.02" xlink:href="#linear-gradient"/><linearGradient id="linear-gradient-8" x1="198.71" y1="24.69" x2="119.69" y2="24.69" xlink:href="#linear-gradient"/><linearGradient id="linear-gradient-9" x1="198.71" y1="28.11" x2="119.69" y2="28.11" xlink:href="#linear-gradient"/><linearGradient id="linear-gradient-10" x1="198.71" y1="26.75" x2="119.69" y2="26.75" xlink:href="#linear-gradient"/></defs><path class="cls-1" d="M0,0H6.55V28.79H0Z"/><path class="cls-1" d="M12.78,6.89h5.31l.44,2.78h.18c1.9-1.76,4.07-3.31,7-3.31,4.74,0,6.81,3.35,6.81,8.83v13.6H26.06V16.08c0-3.18-.85-4.15-2.71-4.15-1.63,0-2.65.74-4.07,2.12V28.79h-6.5Z"/><path class="cls-1" d="M35.74,6.89h6.55l2.84,10.33c.58,2.16,1.14,4.46,1.72,6.76H47c.53-2.3,1.1-4.6,1.68-6.76L51.55,6.89H57.8l-7.16,21.9H43.13Z"/><path class="cls-1" d="M69.93,6.36c6.24,0,9.33,4.55,9.33,10.5A12.63,12.63,0,0,1,79,19.61H65.87a5.32,5.32,0,0,0,5.68,4.73,8.88,8.88,0,0,0,4.74-1.46l2.17,3.93a14.33,14.33,0,0,1-7.78,2.51c-6.25,0-11.09-4.24-11.09-11.48S64.67,6.36,69.93,6.36Zm3.79,9.23c0-2.52-1-4.24-3.61-4.24-2,0-3.79,1.37-4.24,4.29Z"/><path class="cls-1" d="M84.75,22.21a9.55,9.55,0,0,0,5.68,2.3c1.9,0,2.79-.71,2.79-1.89,0-1.46-2.22-2.12-4.47-3C86.1,18.6,83,16.77,83,13.17c0-4.07,3.32-6.85,8.4-6.85A12.65,12.65,0,0,1,99.1,9.1L96.19,13a8.17,8.17,0,0,0-4.66-1.9c-1.67,0-2.47.62-2.47,1.73,0,1.41,2,1.94,4.29,2.78,2.79,1,5.92,2.56,5.92,6.62s-3.15,7.1-9,7.1a14.26,14.26,0,0,1-8.41-3Z"/><path class="cls-1" d="M104.22,12h-3V7.15l3.35-.26.76-5.83h5.39V6.89H116V12h-5.23v8.78c0,2.47,1.11,3.49,2.84,3.49a5.91,5.91,0,0,0,2.08-.44l1,4.73a16.26,16.26,0,0,1-4.9.79c-5.44,0-7.58-3.4-7.58-8.51Z"/><path class="cls-2" d="M144.48,0V29.19h-7.75V18.41h-9.07V29.19h-7.74V0h7.74V10.68h9.07V0Z"/><path class="cls-3" d="M166.33,27c.28-.25.57-.51.83-.77a8.34,8.34,0,0,0,.66-.72,12,12,0,0,0,2.67-5.62,14.72,14.72,0,0,0,.13-1.49,1.7,1.7,0,0,1-.74-.61,14.86,14.86,0,0,1-1.39-2.83l-1.73,1.64a.51.51,0,0,1-.21.15.49.49,0,0,1-.24.05.54.54,0,0,1-.25-.06.55.55,0,0,1-.2-.17,4.56,4.56,0,0,1-1.06-3.13,4.52,4.52,0,0,1,1.33-3,4,4,0,0,1,1.57-1.07,13.66,13.66,0,0,1,3-8.07V0H163V18A3.93,3.93,0,0,1,159,21.9a4,4,0,0,1-2.78-1.15A3.93,3.93,0,0,1,155.1,18V0h-7.77V18a11.24,11.24,0,0,0,3.42,8.22,11.37,11.37,0,0,0,3.76,2.56,11.09,11.09,0,0,0,4.48.85h.66a11.71,11.71,0,0,0,6.21-2.23A5.29,5.29,0,0,1,166.33,27Z"/><path class="cls-4" d="M196.13,13.91a9.31,9.31,0,0,0,1.07-4.39,9.23,9.23,0,0,0-.72-3.66,9.11,9.11,0,0,0-2.13-3.08A9.18,9.18,0,0,0,187.69,0h-14.3V1.22a19,19,0,0,1,1.29,1.89,13.76,13.76,0,0,1,1.79,6.28,4.4,4.4,0,0,1,1.58,1,4.64,4.64,0,0,1,1.32,3,4.59,4.59,0,0,1-1.07,3.13.52.52,0,0,1-.19.17.54.54,0,0,1-.25.06.57.57,0,0,1-.45-.2l-1.78-1.74a13.94,13.94,0,0,1-1.48,3,1.45,1.45,0,0,1-.74.55l.17-.05c0,5.07.39,10.79,8.52,11.18h8a9,9,0,0,0,6.11-2.93,9,9,0,0,0,2.5-6.33,9.09,9.09,0,0,0-.65-3.46A9.26,9.26,0,0,0,196.13,13.91Zm-15-6.1h6.5a2,2,0,0,1,.81.16,1.86,1.86,0,0,1,.68.46,1.9,1.9,0,0,1,.46.69,2.09,2.09,0,0,1-.46,2.3,2.08,2.08,0,0,1-.67.47,2,2,0,0,1-.82.17h-6.5Zm9.39,13.34a1.38,1.38,0,0,1-.5.46,1.43,1.43,0,0,1-.67.15h-8.22V17.5h7.93a2.12,2.12,0,0,1,1.46,3.65Z"/><path class="cls-5" d="M172,7.94a1.32,1.32,0,1,0-1.31-1.32A1.32,1.32,0,0,0,172,7.94Z"/><path class="cls-6" d="M174.43,8.19,172.34,7l.16-.28,2.09,1.2Z"/><path class="cls-7" d="M174.35,8.64a.69.69,0,1,0-.68-.69A.69.69,0,0,0,174.35,8.64Z"/><path class="cls-8" d="M169.64,8.66A.68.68,0,1,0,169,8,.68.68,0,0,0,169.64,8.66Z"/><path class="cls-9" d="M169.81,8.05l-.16-.28,2.09-1.21.17.29Z"/><path class="cls-10" d="M172,4.57a.68.68,0,1,0-.69-.68A.69.69,0,0,0,172,4.57Z"/><path class="cls-11" d="M172.16,4.05h-.33V6.46h.33Z"/></svg>