<svg width="23" height="23" viewBox="0 0 23 23" fill="none" xmlns="http://www.w3.org/2000/svg">
<g clip-path="url(#clip0_3653_125)">
<path d="M2.02583 4.9834C1.28423 6.05979 0.720643 7.2684 0.378906 8.56742H5.61004L2.02583 4.9834Z" fill="#29337A"/>
<path d="M8.28111 0.459961C6.95611 0.845835 5.729 1.46157 4.64844 2.26469L8.28111 5.89736V0.459961Z" fill="#29337A"/>
<path d="M4.91797 20.9264C5.93153 21.6357 7.0639 22.1848 8.28047 22.539V17.5645L4.91797 20.9264Z" fill="#29337A"/>
<path d="M0.511719 14.8955C0.891961 16.1272 1.47463 17.2698 2.21929 18.2863L5.6101 14.8955H0.511719Z" fill="#29337A"/>
<path d="M2.21562 4.7168C2.15134 4.80468 2.08797 4.89383 2.02587 4.9839L5.61008 8.56792H0.378945C0.294166 8.89057 0.224973 9.21944 0.167969 9.55283H7.05204L2.21562 4.7168Z" fill="white"/>
<path d="M4.65234 20.737C4.73984 20.8022 4.82977 20.8643 4.91906 20.9268L8.28156 17.5647V22.5392C8.60461 22.6337 8.9327 22.7152 9.26647 22.7808V16.123L4.65234 20.737Z" fill="white"/>
<path d="M0.257812 13.9102C0.32919 14.2439 0.413434 14.5726 0.51312 14.8951H5.61155L2.22074 18.2859C2.58952 18.7897 2.99846 19.2626 3.44279 19.6998L9.23242 13.9102H0.257812Z" fill="white"/>
<path d="M8.27759 0.460267V5.89766L4.64487 2.26519C4.14407 2.63761 3.67594 3.05107 3.24219 3.49866L9.26231 9.51877V0.21875C8.92873 0.284689 8.60063 0.366409 8.27759 0.460267Z" fill="white"/>
<path d="M8.28061 14.8613L8.24609 14.896H8.28061V14.8613Z" fill="#D32030"/>
<path d="M9.23047 13.9106H9.26494V13.876L9.23047 13.9106Z" fill="#D32030"/>
<path d="M13.6543 9.55273H13.6211V9.58614L13.6543 9.55273Z" fill="#D32030"/>
<path d="M8.31519 8.56831L8.28125 8.53418V8.56831H8.31519Z" fill="#D32030"/>
<path d="M9.26562 9.51855V9.55254H9.29961L9.26562 9.51855Z" fill="#D32030"/>
<path d="M14.6055 19.9934V22.5712C15.8379 22.2263 16.9869 21.6824 18.0146 20.9739L15.2214 18.1807C14.9982 18.9649 14.9165 19.3703 14.6055 19.9934Z" fill="#252F6C"/>
<path d="M15.2361 5.26648L18.2854 2.21722C17.1899 1.41497 15.9472 0.803606 14.6055 0.427734V3.07588C14.9641 3.79402 14.9943 4.3397 15.2361 5.26648Z" fill="#252F6C"/>
<path d="M20.7313 18.3533C21.4992 17.3203 22.0977 16.1542 22.4864 14.8955H17.2734L20.7313 18.3533Z" fill="#252F6C"/>
<path d="M22.6194 8.56802C22.2703 7.24156 21.6898 6.01028 20.9248 4.91699L17.2734 8.56802H22.6194Z" fill="#252F6C"/>
<path d="M15.9102 14.1058L16.7004 14.896L20.4831 18.6787C20.569 18.5712 20.6543 18.4641 20.7364 18.3539L17.2786 14.896H22.4915C22.5909 14.5737 22.6753 14.2449 22.7465 13.9111H15.9841C15.973 14.0508 15.9234 13.9671 15.9102 14.1058Z" fill="#E7E7E7"/>
<path d="M15.1165 5.84374L18.5449 2.41496C18.459 2.34834 18.373 2.28206 18.2853 2.21777L15.236 5.26704C15.2676 5.38761 15.0871 5.72026 15.1165 5.84374Z" fill="#E7E7E7"/>
<path d="M14.606 2.86421V0.427766C14.2834 0.337355 13.9549 0.260734 13.6211 0.198242V1.3867C13.9875 1.78398 14.316 2.28299 14.606 2.86421Z" fill="#E7E7E7"/>
<path d="M15.8315 9.55246H22.8331C22.7762 9.21907 22.7069 8.8904 22.6221 8.56755H17.2762L20.9276 4.91653C20.5686 4.40373 20.1697 3.92147 19.7339 3.47461L15.6211 7.58701C15.7318 8.33298 15.7814 8.76619 15.8315 9.55246Z" fill="#E7E7E7"/>
<path d="M15.0547 18.0142L18.0143 20.9741C18.5065 20.6351 18.9701 20.2578 19.4026 19.8482L15.5098 15.9551C15.3855 16.6751 15.2381 17.3705 15.0547 18.0142Z" fill="#E7E7E7"/>
<path d="M13.6211 21.476V22.8006C13.9548 22.7385 14.2832 22.6615 14.606 22.5711V19.9932C14.3158 20.5746 13.9874 21.0792 13.6211 21.476Z" fill="#E7E7E7"/>
<path d="M15.6224 7.58751L19.7348 3.47511C19.3646 3.09487 18.9676 2.741 18.5478 2.41504L15.3164 5.64697C15.46 6.24727 15.5252 6.93439 15.6224 7.58751Z" fill="#D71F28"/>
<path d="M10.9258 0.0147948C11.1174 0.00511738 11.3084 0 11.4996 0C11.3073 0 11.1159 0.00511738 10.9258 0.0147948Z" fill="#D32030"/>
<path d="M11.4992 23.0005C11.308 23.0005 11.117 22.995 10.9258 22.9854C11.1159 22.9954 11.3069 23.0005 11.4992 23.0005Z" fill="#D32030"/>
<path d="M11.5 23.0002C12.2256 23.0002 12.9341 22.9299 13.6223 22.8012V21.4766C13.0182 22.1313 12.3115 23.0002 11.5 23.0002Z" fill="#D32030"/>
<path d="M22.8342 9.55273H15.9237C16.0152 10.995 16.0041 12.4782 15.8906 13.9106H22.7467C22.9127 13.1329 23.0016 12.3271 23.0016 11.5002C23.0016 10.8359 22.9424 10.1862 22.8342 9.55273Z" fill="#D71F28"/>
<path d="M15.909 14.1055C15.8451 14.785 15.6225 15.3144 15.5117 15.9554L19.4046 19.8483C19.7897 19.4833 20.1498 19.0929 20.4817 18.6784L16.6992 14.8955L15.909 14.1055Z" fill="#D71F28"/>
<path d="M13.6223 1.47241V0.198643C12.9343 0.0702606 12.2258 0 11.5 0C12.3115 0 13.0182 0.817829 13.6223 1.47241Z" fill="#D32030"/>
<path d="M14.6055 20.4902C14.9165 19.8671 15.1832 19.1497 15.4066 18.3656L14.6055 17.5645V20.4902Z" fill="#29337A"/>
<path d="M15.5063 4.99626C15.264 4.06948 14.9641 3.22693 14.6055 2.50879V5.89669L15.5063 4.99626Z" fill="#29337A"/>
<path d="M16.1327 14.328C16.1457 14.1893 16.1575 14.05 16.1688 13.9102H15.7148L16.1327 14.328Z" fill="white"/>
<path d="M14.606 5.89685V2.50876C14.3158 1.92754 13.9875 1.4282 13.6211 1.03125V7.33896L15.599 5.36104C15.5693 5.23756 15.538 5.11661 15.5068 4.99604L14.606 5.89685Z" fill="white"/>
<path d="M13.6562 9.55261H16.202C16.1521 8.76639 16.0725 7.99284 15.9619 7.24707L13.6562 9.55261Z" fill="white"/>
<path d="M13.6211 21.968C13.9875 21.5707 14.3158 21.0717 14.606 20.4905V17.5647L15.4071 18.3658C15.5909 17.7217 15.745 17.0337 15.8696 16.3138L13.6211 14.0654L13.6211 21.968Z" fill="white"/>
<path d="M13.6221 21.9683V14.0657L15.8705 16.3142C15.981 15.673 16.0681 15.0081 16.1318 14.3285L15.7139 13.9107H16.1679C16.2814 12.4782 16.2924 10.995 16.2009 9.55276H13.6552L15.9607 7.24722C15.8636 6.5939 15.7434 5.962 15.5998 5.3615L13.6222 7.33943V1.03172C13.018 0.37694 12.3113 0 11.4998 0C11.3086 0 11.1176 0.00490415 10.926 0.0141783C10.3604 0.0424865 9.80569 0.112067 9.26419 0.218842V9.51882L3.24393 3.4987C2.87403 3.8804 2.52996 4.28711 2.21508 4.71692L6.0662 8.56804L7.05145 9.55295H0.167421C0.0595782 10.1863 0 10.8359 0 11.5002C0 12.3273 0.089343 13.1329 0.254919 13.9107H9.22972L3.44005 19.7003C3.81917 20.0728 4.22282 20.4196 4.65011 20.737L9.26405 16.123V22.7808C9.80549 22.8876 10.3606 22.9571 10.9262 22.9855C11.1174 22.9948 11.3084 23 11.4997 23C12.3113 23 13.018 22.6231 13.6221 21.9683Z" fill="#E51D35"/>
</g>
<defs>
<clipPath id="clip0_3653_125">
<rect width="23" height="23" fill="white"/>
</clipPath>
</defs>
</svg>
