<svg width="24" height="24" viewBox="0 0 24 24" fill="none" xmlns="http://www.w3.org/2000/svg">
<g clip-path="url(#clip0_3640_44)">
<path d="M5.15701 21.8562H18.842L18.8427 21.8555H5.15625L5.15701 21.8562Z" fill="#C42126"/>
<path d="M12.0024 0C11.7667 0 11.5329 0.00851213 11.3008 0.021787H12.7042C12.4719 0.00851213 12.2381 0 12.0024 0Z" fill="#C42126"/>
<path d="M15.5457 4.38803H21.2758C20.5951 3.55947 19.8041 2.82601 18.9278 2.20508H14.625C14.981 2.83148 15.2872 3.57062 15.5457 4.38803Z" fill="#E7E7E7"/>
<path d="M14.6258 2.205H18.9286C17.1498 0.944442 15.0142 0.155044 12.7015 0.0214844H12.332C13.4206 0.158489 13.9206 0.964101 14.6258 2.205Z" fill="#DC3027"/>
<path d="M23.5527 8.75522C23.3394 7.9943 23.0532 7.26423 22.7016 6.57227H16.1094C16.2429 7.27315 16.3483 8.00524 16.4264 8.75522H23.5527Z" fill="#E7E7E7"/>
<path d="M15.7393 6.57198H22.7021C22.3053 5.79155 21.8286 5.0592 21.2776 4.38867H15.1953C15.4098 5.06756 15.5919 5.79991 15.7393 6.57198Z" fill="#DC3027"/>
<path d="M16.6797 13.1216H23.947C23.9815 12.7523 24.001 12.3781 24.001 11.9999C24.001 11.642 23.9822 11.2886 23.9515 10.9385H16.6814C16.7051 11.6645 16.7047 12.3959 16.6797 13.1216Z" fill="#E7E7E7"/>
<path d="M23.9517 10.9388C23.8859 10.189 23.7509 9.45958 23.5536 8.75586H16.1211C16.1957 9.47073 16.245 10.2021 16.2691 10.9388H23.9517Z" fill="#DC3027"/>
<path d="M15.9844 17.489H22.6706C23.0271 16.7978 23.3178 16.0671 23.5357 15.3057H16.3076C16.228 16.0568 16.12 16.7887 15.9844 17.489Z" fill="#E7E7E7"/>
<path d="M23.5364 15.305C23.7379 14.6015 23.8777 13.872 23.9472 13.1221H16.4533C16.4277 13.8593 16.3769 14.5905 16.3008 15.305H23.5364Z" fill="#DC3027"/>
<path d="M18.8419 21.8548C19.7309 21.2364 20.5332 20.5022 21.2246 19.6719H15.5944C15.3312 20.4927 15.0187 21.2307 14.6562 21.8548H18.8419Z" fill="#E7E7E7"/>
<path d="M15.3828 19.6716H21.2249C21.7823 19.0018 22.2662 18.2695 22.6688 17.4883H15.9336C15.7841 18.2609 15.6002 18.9936 15.3828 19.6716Z" fill="#DC3027"/>
<path d="M11.5649 23.9909C11.5407 23.9902 11.5165 23.989 11.4922 23.9883C11.5165 23.989 11.5407 23.9902 11.5649 23.9909Z" fill="#DC3027"/>
<path d="M12 23.9996C14.5441 23.9996 16.9013 23.2055 18.8427 21.8555H14.4997C13.7289 23.1835 13.2204 23.9996 12 23.9996Z" fill="#DC3027"/>
<path d="M12.0012 23.9997C11.8555 23.9997 11.7108 23.9963 11.5664 23.9912C11.7123 23.9961 11.8572 23.9997 12.0012 23.9997Z" fill="#C42126"/>
<path d="M15.0228 2.20508H5.07084C4.19434 2.82601 3.40347 3.55942 2.72266 4.38803H15.9433C15.6848 3.57062 15.3788 2.83148 15.0228 2.20508Z" fill="#F3F4F5"/>
<path d="M5.07031 2.205H15.0223C14.3169 0.964101 13.4197 0.158489 12.3312 0.0214844H11.2972C8.98447 0.155044 6.84889 0.944442 5.07031 2.205Z" fill="#E73625"/>
<path d="M0.449219 8.75522H16.8062C16.7281 8.00509 16.6228 7.27315 16.4892 6.57227H1.30033C0.948648 7.26428 0.662579 7.9943 0.449219 8.75522Z" fill="#F3F4F5"/>
<path d="M2.72114 4.38867C2.17053 5.0592 1.69345 5.7915 1.29688 6.57198H16.4856C16.3383 5.80006 16.1563 5.06777 15.9417 4.38867C15.9417 4.38867 2.72114 4.38867 2.72114 4.38867Z" fill="#E73625"/>
<path d="M0 11.9998C0 12.3779 0.0197096 12.7522 0.0540115 13.1214H16.9511C16.9762 12.3957 16.9765 11.6645 16.9529 10.9385H0.0494514C0.018747 11.2885 0 11.6418 0 11.9998Z" fill="#F3F4F5"/>
<path d="M0.0507812 10.9388H16.954C16.9299 10.202 16.8805 9.47078 16.806 8.75586H0.448673C0.251424 9.45973 0.116345 10.189 0.0507812 10.9388Z" fill="#E73625"/>
<path d="M16.7987 15.3057H0.464844C0.682764 16.0673 0.973596 16.7978 1.32999 17.489H16.4755C16.6111 16.7889 16.7189 16.0569 16.7987 15.3057Z" fill="#F3F4F5"/>
<path d="M0.465448 15.305H16.7993C16.8753 14.5905 16.9262 13.8591 16.9518 13.1221H0.0546875C0.124203 13.8722 0.264248 14.6015 0.465448 15.305Z" fill="#E73625"/>
<path d="M5.15607 21.8548H14.986C15.3485 21.2305 15.6611 20.4927 15.9241 19.6719H2.77344C3.46485 20.5022 4.26686 21.2364 5.15607 21.8548Z" fill="#F3F4F5"/>
<path d="M1.33203 17.4883C1.73469 18.2695 2.21856 19.0018 2.776 19.6716H15.9267C16.1438 18.9937 16.3278 18.261 16.4773 17.4883H1.33203Z" fill="#E73625"/>
<path d="M11.4948 23.9884C11.5191 23.9892 11.5433 23.9903 11.5676 23.991C11.712 23.9962 11.8568 23.9996 12.0024 23.9996C13.2229 23.9996 14.218 23.1835 14.9889 21.8555H5.16016C6.97136 23.1152 9.1454 23.8905 11.4948 23.9884Z" fill="#E73625"/>
<path d="M11.7516 0.00585938C5.60221 0.130957 0.590187 4.87895 0.0507812 10.9185H11.7518V0.00585938H11.7516Z" fill="#283991"/>
<path d="M2.40016 6.7998L2.58297 7.36272H3.17527L2.69611 7.71081L2.87912 8.27413L2.40016 7.92584L1.92135 8.27413L2.10401 7.71081L1.625 7.36272H2.2173L2.40016 6.7998Z" fill="#EFEFEF"/>
<path d="M2.40016 8.78809L2.58297 9.35136H3.17527L2.69611 9.69944L2.87912 10.2628L2.40016 9.91447L1.92135 10.2628L2.10401 9.69944L1.625 9.35136H2.2173L2.40016 8.78809Z" fill="#EFEFEF"/>
<path d="M4.38865 3.81543L4.5715 4.37855H5.1636L4.68459 4.72684L4.86745 5.28975L4.38865 4.94187L3.90964 5.28975L4.09249 4.72684L3.61328 4.37855H4.20558L4.38865 3.81543Z" fill="#EFEFEF"/>
<path d="M4.38865 5.80469L4.5715 6.3678H5.1636L4.68459 6.71568L4.86745 7.279L4.38865 6.93112L3.90964 7.279L4.09249 6.71568L3.61328 6.3678H4.20558L4.38865 5.80469Z" fill="#EFEFEF"/>
<path d="M4.38865 7.79395L4.5715 8.35727H5.1636L4.68459 8.70495L4.86745 9.26827L4.38865 8.92003L3.90964 9.26827L4.09249 8.70495L3.61328 8.35727H4.20558L4.38865 7.79395Z" fill="#EFEFEF"/>
<path d="M0.88946 9.26772L0.70645 8.7044L1.18546 8.35652H0.593512L0.580237 8.31543C0.515231 8.51648 0.456507 8.71996 0.402344 8.92572L0.410704 8.91949L0.88946 9.26772Z" fill="#EFEFEF"/>
<path d="M1.92055 6.28502L2.39936 5.93678L2.87837 6.28502L2.69536 5.7217L3.17437 5.37346H2.58207L2.39921 4.81055L2.21635 5.37346H1.99808C1.95754 5.43487 1.91833 5.49663 1.87891 5.55896L2.10326 5.7217L1.92055 6.28502Z" fill="#EFEFEF"/>
<path d="M4.38957 2.95292L4.86838 3.3008L4.68552 2.73789L5.16433 2.38965H4.82232C4.53185 2.60681 4.2516 2.83664 3.98236 3.07913L3.91016 3.3008L4.38957 2.95292Z" fill="#EFEFEF"/>
<path d="M5.89844 2.30634L6.37745 1.9581L6.85625 2.30634L6.67339 1.74302L7.1522 1.39513H6.5601L6.53527 1.31934C6.33463 1.42184 6.13607 1.52849 5.94201 1.64199L6.08109 1.74297L5.89844 2.30634Z" fill="#EFEFEF"/>
<path d="M6.37688 2.82129L6.55973 3.38405H7.15183L6.67282 3.73229L6.85568 4.29561L6.37688 3.94732L5.89787 4.29561L6.08072 3.73229L5.60156 3.38405H6.19381L6.37688 2.82129Z" fill="#EFEFEF"/>
<path d="M6.37688 4.81055L6.55973 5.37331H7.15183L6.67282 5.72155L6.85568 6.28487L6.37688 5.93658L5.89787 6.28487L6.08072 5.72155L5.60156 5.37331H6.19381L6.37688 4.81055Z" fill="#EFEFEF"/>
<path d="M6.37688 6.7998L6.55973 7.36272H7.15183L6.67282 7.71081L6.85568 8.27413L6.37688 7.92584L5.89787 8.27413L6.08072 7.71081L5.60156 7.36272H6.19381L6.37688 6.7998Z" fill="#EFEFEF"/>
<path d="M6.37688 8.78809L6.55973 9.35136H7.15183L6.67282 9.69944L6.85568 10.2628L6.37688 9.91447L5.89787 10.2628L6.08072 9.69944L5.60156 9.35136H6.19381L6.37688 8.78809Z" fill="#EFEFEF"/>
<path d="M8.36516 1.82617L8.54801 2.38929H9.14011L8.66131 2.73758L8.84396 3.30049L8.36516 2.95261L7.88599 3.30049L8.06901 2.73758L7.58984 2.38929H8.18209L8.36516 1.82617Z" fill="#EFEFEF"/>
<path d="M8.36516 3.81543L8.54801 4.37855H9.14011L8.66131 4.72684L8.84396 5.28975L8.36516 4.94187L7.88599 5.28975L8.06901 4.72684L7.58984 4.37855H8.18209L8.36516 3.81543Z" fill="#EFEFEF"/>
<path d="M8.36516 5.80469L8.54801 6.3678H9.14011L8.66131 6.71568L8.84396 7.279L8.36516 6.93112L7.88599 7.279L8.06901 6.71568L7.58984 6.3678H8.18209L8.36516 5.80469Z" fill="#EFEFEF"/>
<path d="M8.36516 7.79395L8.54801 8.35727H9.14011L8.66131 8.70495L8.84396 9.26827L8.36516 8.92003L7.88599 9.26827L8.06901 8.70495L7.58984 8.35727H8.18209L8.36516 7.79395Z" fill="#EFEFEF"/>
<path d="M10.3573 0.832031L10.5402 1.39515H11.1323L10.6533 1.74303L10.8362 2.30635L10.3573 1.95806L9.87818 2.30635L10.0612 1.74303L9.58203 1.39515H10.1741L10.3573 0.832031Z" fill="#EFEFEF"/>
<path d="M10.3573 2.82129L10.5402 3.38405H11.1323L10.6533 3.73229L10.8362 4.29561L10.3573 3.94732L9.87818 4.29561L10.0612 3.73229L9.58203 3.38405H10.1741L10.3573 2.82129Z" fill="#EFEFEF"/>
<path d="M10.3573 4.81055L10.5402 5.37331H11.1323L10.6533 5.72155L10.8362 6.28487L10.3573 5.93658L9.87818 6.28487L10.0612 5.72155L9.58203 5.37331H10.1741L10.3573 4.81055Z" fill="#EFEFEF"/>
<path d="M10.3573 6.7998L10.5402 7.36272H11.1323L10.6533 7.71081L10.8362 8.27413L10.3573 7.92584L9.87818 8.27413L10.0612 7.71081L9.58203 7.36272H10.1741L10.3573 6.7998Z" fill="#EFEFEF"/>
<path d="M10.3573 8.78809L10.5402 9.35136H11.1323L10.6533 9.69944L10.8362 10.2628L10.3573 9.91447L9.87818 10.2628L10.0612 9.69944L9.58203 9.35136H10.1741L10.3573 8.78809Z" fill="#EFEFEF"/>
</g>
<defs>
<clipPath id="clip0_3640_44">
<rect width="24" height="24" fill="white"/>
</clipPath>
</defs>
</svg>
